<svg xmlns="http://www.w3.org/2000/svg" width="266.9999999997222mm" height="209.00000001344446mm" viewBox="0 0 756.8503937 592.4409449200001"><g transform="translate(0 0)"><g transform="translate(-229.9317672703 362.0269319082) rotate(0)"><path style="fill:none;stroke:#000000;stroke-width:0.25;stroke-miterlimit:10;" d="M397.565-330.149
		c-0.069-3.735-1.296-7.601-3.038-10.906c-1.809-3.432-4.559-6.518-7.487-9.064c-2.256-1.962-5.033-3.674-7.944-4.354
		c-10.109-2.362-20.715-4.645-31.095-4.768c-15.874-0.188-32.095,3.12-47.955,3.833c-8.612,0.387-17.5-0.693-26.118-0.505
		c-6.274,0.137-12.74,0.653-18.959,1.491c-2.626,0.354-5.359,0.962-7.748,2.11c-2.263,1.087-4.47,2.636-6.102,4.544
		c-1.668,1.95-3.087,4.361-3.655,6.864c-1.914,8.434-3.528,17.287-3.788,25.931c-0.607,20.146,0.268,40.93,1.169,61.065
		c0.153,3.422,0.822,6.971,2.018,10.181c0.677,1.816,1.989,3.516,3.526,4.697c1.501,1.154,3.441,2.093,5.335,2.113
		c14.616,0.154,29.649-1.496,44.266-1.589c1.923-0.012,3.85-0.017,5.78-0.016c-2.643,0.805-4.584,3.241-4.624,6.151
		c-0.051,3.604,2.83,6.568,6.435,6.618l35.396,0.497c3.604,0.051,6.568-2.83,6.618-6.435c0.041-2.928-1.852-5.433-4.497-6.297
		c17.193,0.329,34.402,0.611,51.332,0.171c2.706-0.07,5.644-1.39,7.473-3.386c2.002-2.185,3.229-5.395,3.288-8.358
		c0.369-18.502-2.091-37.536-2.005-56.041C395.223-313.741,397.716-322.012,397.565-330.149z"/></g><g transform="translate(-128.9313761000 37.9512092000) rotate(270)"><path style="fill:none;stroke:#000000;stroke-width:0.25;stroke-miterlimit:10;" d="M-101.77,174.374
		c-1.452-4.168-4.65-7.711-6.254-11.823c-1.109-2.843-0.879-6.173-1.889-9.052c-0.623-1.776-1.356-3.92-2.988-4.857
		c-8.678-4.984-17.719-10.797-27.548-12.68c-21.83-4.181-44.95-4.049-67.132-5.454c-2.286-0.145-4.69,0.16-6.899,0.766
		c-5.063,1.389-10.33,2.885-15.018,5.247c-4.207,2.119-8.597,4.643-11.684,8.201c-2.522,2.907-4.2,6.859-4.691,10.676
		c-1.581,12.28-1.629,25.108-1.509,37.489c0.154,15.79,0.757,32.083,2.339,47.795c0.227,2.251,1.713,4.325,3.09,6.12
		c0.673,0.878,1.823,1.422,2.898,1.684c3.403,0.829,6.993,1.509,10.495,1.578c4.592,0.09,9.281-1.132,13.874-1.1
		c1.162,0.008,2.333,0.028,3.497,0.039c-2.297,0.732-3.985,2.853-4.041,5.397c-0.07,3.204,2.47,5.859,5.674,5.929l70.526,1.549
		c3.204,0.07,5.859-2.47,5.929-5.674c0.057-2.595-1.599-4.828-3.932-5.622c5.768,0.107,11.522,0.197,17.239,0.24
		c2.052,0.015,4.279-0.194,6.121-1.1c1.6-0.787,3.503-2.048,3.842-3.799c1.335-6.897-0.01-14.313,1.009-21.264
		c2.004-13.666,6.212-27.379,8.13-41.058C-100.264,180.566-100.761,177.269-101.77,174.374z"/></g><g transform="translate(-216.7556969000 -188.7573792000) rotate(90)"><path style="fill:none;stroke:#000000;stroke-width:0.25;stroke-miterlimit:10;" d="M639.909-301.098
		c0.102-11.339,2.725-22.902,2.904-34.24c0.064-4.029-0.848-8.21-2.174-12.015c-1.244-3.571-3.101-7.133-5.513-10.046
		c-1.679-2.028-4.081-3.66-6.563-4.539c-3.67-1.3-7.751-1.841-11.644-1.911c-4.917-0.088-9.918,1.573-14.835,1.436
		c-22.448-0.626-45.5-3.127-67.948-3.744c-9.201-0.253-18.764-0.226-27.871,1.109c-4.005,0.587-7.767,2.766-11.356,4.64
		c-2.556,1.335-5.068,3.028-7.15,5.023c-1.964,1.882-3.744,4.15-4.961,6.583c-0.951,1.901-1.35,4.15-1.471,6.272
		c-0.493,8.62,0.141,17.542-0.384,26.16c-0.56,9.189-2.553,18.547-2.903,27.746c-0.195,5.142,1.354,10.398,1.257,15.542
		c-0.131,6.943-2.186,14.013-1.947,20.953c0.148,4.29,0.866,8.97,3.106,12.632c1.291,2.111,4.252,2.971,6.692,3.388
		c8.731,1.489,17.893,1.88,26.739,2.316c5.195,0.256,10.566-0.495,15.761-0.223c0.566,0.03,1.136,0.071,1.703,0.104
		c-2.219,0.602-3.911,2.559-4.056,4.981c-0.183,3.036,2.13,5.646,5.167,5.829l53.694,3.234c3.036,0.183,5.646-2.13,5.829-5.167
		c0.156-2.598-1.517-4.878-3.904-5.598c4.01-0.121,8.019-0.265,11.968-0.214c10.302,0.131,20.904,1.209,31.204,0.975
		c2.069-0.047,4.245-0.726,6.002-1.819c1.579-0.982,3.423-2.394,3.722-4.229c1.371-8.409,1.313-17.272,1.173-25.791
		C641.936-274.728,639.792-288.08,639.909-301.098z"/></g><g transform="translate(-244.0946721000 552.2387704000) rotate(270)"><path style="fill:none;stroke:#000000;stroke-width:0.25;stroke-miterlimit:10;" d="M388.971,405.696
		c-0.223-4.394-3.532-8.478-6.71-11.522c-2.894-2.772-7.035-4.299-10.903-5.348c-10.282-2.79-21.029-6.185-31.683-6.206
		c-10.229-0.02-20.164,6.156-30.393,6.086c-12.368-0.085-24.56-5.778-36.905-6.547c-5.005-0.312-10.13,1.57-14.827,3.325
		c-3.295,1.231-6.58,3.115-9.068,5.602c-1.669,1.669-2.544,4.172-3.02,6.484c-1.689,8.201-3.17,16.765-3.492,25.132
		c-0.342,8.881,0.156,18.104,1.487,26.891c0.601,3.966,3.957,7.372,4.306,11.368c0.457,5.232-2.133,10.548-1.934,15.796
		c0.087,2.301,0.844,5.149,2.777,6.401c4.748,3.075,10.49,5.269,16.118,5.834c3.203,0.322,6.448,0.202,9.706-0.077
		c-3.958,1.451-6.796,5.233-6.815,9.696c-0.025,5.734,4.604,10.403,10.338,10.428l75.558,0.325
		c5.734,0.025,10.403-4.604,10.428-10.338c0.021-4.853-3.296-8.931-7.791-10.088c1.281,0.027,2.567,0.059,3.844,0.081
		c6.662,0.115,13.681,1.386,20.192-0.03c2.831-0.615,6.294-2.911,6.598-5.792C389.467,457.752,390.269,431.248,388.971,405.696z
		 M280.46,488.284c3.673-0.419,7.341-0.826,10.964-0.825c16.219,0.005,32.78,0.602,49.193,1.084L280.46,488.284z"/></g><g transform="translate(-335.2862116000 -804.5714452000) rotate(0)"><path style="fill:none;stroke:#000000;stroke-width:0.25;stroke-miterlimit:10;" d="M633.081,1152.46
		c-1.419-3.842-3.692-7.475-5.026-11.347c-0.892-2.588-0.704-5.566-1.683-8.122c-0.746-1.948-1.995-3.804-3.456-5.294
		c-1.553-1.583-3.504-2.902-5.509-3.849c-2.627-1.241-5.506-2.254-8.375-2.71c-4.702-0.748-9.637-0.933-14.398-0.912
		c-5.413,0.024-10.984,1.602-16.369,1.049c-6.295-0.646-12.397-3.418-18.606-4.64c-2.359-0.464-4.879-0.695-7.272-0.454
		c-10.35,1.045-21.008,2.375-31.224,4.339c-6.064,1.166-12.319,2.696-17.996,5.125c-3.298,1.411-6.201,3.901-8.822,6.351
		c-1.874,1.752-3.323,4.035-4.643,6.234c-0.924,1.538-1.906,3.229-2.11,5.012c-0.89,7.795-1.233,15.9-1.172,23.745
		c0.079,10.21,0.859,20.716,1.595,30.9c0.397,5.499,1.093,11.143,1.838,16.606c0.175,1.286,0.414,2.635,0.947,3.818
		c0.525,1.165,1.141,2.478,2.207,3.182c1.426,0.942,3.235,1.535,4.945,1.542c6.997,0.028,14.046,0.007,21.117-0.043
		c-5.204,1.193-9.05,5.888-8.965,11.441c0.098,6.383,5.353,11.478,11.736,11.379l77.342-1.193
		c6.383-0.098,11.478-5.353,11.379-11.736c-0.085-5.502-4.004-10.038-9.171-11.124c6.546-0.083,13.126-0.237,19.553-0.812
		c1.322-0.118,2.509-1.135,3.444-2.077c1.052-1.059,2.187-2.349,2.416-3.824c2.954-19.03,5.246-38.753,7.168-57.915
		C634.128,1155.571,633.625,1153.932,633.081,1152.46z"/></g><g transform="translate(430.3932481000 -472.7972420000) rotate(90)"><path style="fill:none;stroke:#000000;stroke-width:0.25;stroke-miterlimit:10;" d="M629.572,199.479
		c0.443-8.366,3.733-16.718,3.838-25.095c0.094-7.474-1.67-15.109-3.241-22.417c-0.414-1.926-1.097-4.201-2.722-5.314
		c-3.893-2.665-8.521-4.758-13.169-5.566c-13.357-2.324-27.353-3.432-40.905-3.841c-16.828-0.508-34.187,0.33-51.007,1.067
		c-6.654,0.292-13.549,0.733-20.078,2.048c-2.437,0.491-5.145,1.453-6.746,3.355c-2.786,3.309-4.944,7.48-5.922,11.694
		c-2.107,9.083-3.508,18.74-3.3,28.062c0.419,18.825,1.442,38.37,5.191,56.822c0.539,2.653,4.46,3.903,7.166,3.997
		c11.978,0.415,24.131,0.166,36.297-0.194c-2.608,0.884-4.474,3.363-4.44,6.267c0.042,3.611,3.003,6.505,6.614,6.464l45.604-0.525
		c3.611-0.042,6.505-3.003,6.464-6.614c-0.03-2.649-1.634-4.906-3.91-5.908c6.057,0.6,12.146,1.496,18.148,1.509
		c6.835,0.014,13.957-0.417,20.62-1.94c1.878-0.429,3.576-2.067,4.443-3.787c1.339-2.657,1.828-5.837,1.907-8.811
		C630.694,220.432,629.026,209.789,629.572,199.479z M552.064,243.577c8.309-0.235,16.59-0.403,24.79-0.324
		c0.29,0.003,0.582,0.023,0.872,0.029L552.064,243.577z"/></g><g transform="translate(262.4572018000 265.5290528000) rotate(0)"><path style="fill:none;stroke:#000000;stroke-width:0.25;stroke-miterlimit:10;" d="M130.627-24.203
		c1.027-17.423,3.997-35.242,4.654-52.683c0.085-2.267-1.119-4.579-2.429-6.432c-2.641-3.736-5.936-7.191-9.353-10.233
		c-2.068-1.842-4.586-3.328-7.123-4.437c-3.348-1.463-6.968-2.687-10.571-3.295c-15.636-2.638-31.75-6.406-47.606-6.519
		c-12.097-0.086-24.464,2.894-36.177,5.921c-3.368,0.87-6.793,2.917-8.856,5.717c-2.556,3.469-3.702,8.04-4.411,12.291
		c-1.593,9.539-2.56,19.527-2.517,29.198C6.304-39.72,7.423-24.307,9.084-9.443c0.224,2.003,1.235,4.168,2.812,5.423
		c2.158,1.717,5.037,2.914,7.792,3.015c9.118,0.336,18.366,0.232,27.628,0.041c-2.487,0.83-4.279,3.175-4.273,5.941
		c0.007,3.453,2.812,6.246,6.265,6.239l42.711-0.089c3.453-0.007,6.246-2.812,6.239-6.265c-0.006-2.654-1.667-4.912-4.002-5.815
		c8.673,0.494,17.403,1.201,25.975,1.338c1.81,0.029,3.829-0.17,5.371-1.119c1.686-1.038,2.971-2.818,3.881-4.576
		c1.067-2.062,1.838-4.434,1.978-6.751C131.704-16.071,130.391-20.194,130.627-24.203z M63.902-1.319
		c6.14-0.118,12.261-0.191,18.323-0.107c0.834,0.012,1.673,0.042,2.51,0.063L63.902-1.319z"/></g><g transform="translate(1532.0465053000 -216.4561780000) rotate(90)"><path style="fill:none;stroke:#000000;stroke-width:0.25;stroke-miterlimit:10;" d="M374.106,1135.668
		c-0.444-2.76-1.502-5.599-3.13-7.873c-1.564-2.184-3.897-3.918-6.246-5.221c-2.781-1.542-5.904-2.932-9.066-3.268
		c-18.943-2.014-38.559-3.233-57.599-3.818c-3.205-0.099-6.546,0.651-9.556,1.755c-8.978,3.293-18.175,6.976-26.598,11.506
		c-1.909,1.027-3.352,3.058-4.195,5.056c-1.059,2.511-1.4,5.419-1.374,8.145c0.169,17.612,0.863,35.757,1.964,53.336
		c0.363,5.799,1.227,11.756,2.469,17.432c0.433,1.98,1.362,3.949,2.564,5.582c0.982,1.334,2.393,2.461,3.886,3.179
		c0.332,0.159,0.68,0.297,1.028,0.434c-3.3,0.313-5.888,3.083-5.903,6.467c-0.016,3.605,2.893,6.54,6.497,6.557l93.638,0.425
		c3.605,0.016,6.54-2.893,6.557-6.498c0.016-3.507-2.739-6.372-6.207-6.541c1.011-0.411,1.96-1.043,2.758-1.741
		c1.262-1.105,2.527-2.56,2.856-4.204c2.129-10.626,3.493-21.739,4.503-32.529c1.029-10.99,1.403-22.371,1.667-33.405
		C374.736,1145.566,374.881,1140.485,374.106,1135.668z"/></g><g transform="translate(652.9942595000 179.3180597000) rotate(270)"><path style="fill:none;stroke:#000000;stroke-width:0.25;stroke-miterlimit:10;" d="M-111.696-292.252
		c-0.509-10.892,0.527-22.156-0.091-33.042c-0.126-2.213-0.776-4.623-2.147-6.365c-2.974-3.777-6.692-7.218-10.67-9.916
		c-3.173-2.152-6.877-4.108-10.684-4.567c-19.513-2.352-39.794-3.073-59.431-3.885c-4.259-0.176-8.672,0.255-12.887,0.894
		c-5.669,0.86-11.458,2.129-16.99,3.637c-2.027,0.553-4.056,1.438-5.818,2.583c-1.729,1.123-3.612,2.405-4.625,4.201
		c-1.672,2.964-3.084,6.384-3.262,9.783c-0.865,16.517-0.271,33.585,0.123,50.12c0.159,6.682,0.252,13.638,1.552,20.194
		c0.52,2.624,1.924,5.284,3.863,7.127c1.643,1.562,4.101,2.431,6.362,2.59c8.018,0.561,16.321-0.75,24.353-0.442
		c2.333,0.09,4.679,0.291,7.03,0.538c-2.401,0.51-4.249,2.585-4.357,5.151c-0.128,3.039,2.233,5.606,5.272,5.734l39.524,1.659
		c3.039,0.127,5.606-2.233,5.734-5.272c0.107-2.557-1.549-4.774-3.887-5.49c11.186-0.218,22.409-0.657,33.422-1.166
		c1.365-0.063,2.814-0.619,3.86-1.498c1.236-1.038,2.383-2.476,2.746-4.05c1.642-7.115,3.049-14.589,3.24-21.889
		C-109.32-281.159-111.438-286.722-111.696-292.252z"/></g><g transform="translate(746.8228410000 301.9494046000) rotate(270)"><path style="fill:none;stroke:#000000;stroke-width:0.25;stroke-miterlimit:10;" d="M134.775-288.853
		c-0.196-14.095-1.093-28.615-2.441-42.647c-0.237-2.473-1.078-5.016-2.343-7.154c-1.227-2.074-3.062-3.899-5.024-5.298
		c-1.318-0.94-3.021-1.548-4.639-1.594c-32.67-0.938-66.347-1.538-99.03-1.382c-2.251,0.011-4.611,0.75-6.555,1.885
		c-1.904,1.112-3.496,2.889-4.739,4.709c-1.048,1.534-1.731,3.412-2.058,5.241c-0.985,5.51-1.89,11.259-1.891,16.857
		c-0.001,6.8,1.664,13.722,1.884,20.518c0.385,11.894-0.621,24.175-0.053,36.062c0.091,1.895,0.925,3.837,2.032,5.378
		c1.219,1.698,2.955,3.148,4.798,4.134c1.913,1.023,4.087,1.926,6.26,2.096c-2.609,0.739-4.514,3.141-4.492,5.984
		c0.026,3.411,2.813,6.155,6.224,6.129l95.793-0.738c3.411-0.026,6.155-2.813,6.129-6.224c-0.023-2.937-2.093-5.374-4.844-5.979
		c0.797-0.068,1.593-0.144,2.387-0.237c3.04-0.355,5.07-3.827,6.687-6.425c2.112-3.394,3.605-7.378,4.347-11.305
		C134.435-275.351,134.867-282.23,134.775-288.853z M100.265-250.885l-57.136,0.44c12.042-0.467,24.139-1.154,36.019-1.284
		C86.106-251.806,93.19-251.264,100.265-250.885z"/></g><g transform="translate(754.2805660000 669.6102048000) rotate(180)"><path style="fill:none;stroke:#000000;stroke-width:0.25;stroke-miterlimit:10;" d="M377.17,201.689
		c0.423-9.598,2.753-19.398,2.527-29.003c-0.064-2.736-1.776-5.358-3.386-7.571c-1.713-2.356-4.084-4.336-6.479-5.994
		c-5.083-3.518-10.455-7.043-16.075-9.617c-3.22-1.475-6.906-2.19-10.432-2.521c-12.355-1.161-25.144-1.788-37.553-1.989
		c-13.604-0.22-27.634,0.062-41.225,0.714c-1.667,0.08-3.427,0.592-4.83,1.495c-1.739,1.12-3.609,2.548-4.411,4.455
		c-1.845,4.387-3.104,9.273-3.361,14.025c-1.11,20.517-0.805,41.712-0.767,62.258c0.002,1.234,0.242,2.581,0.89,3.632
		c0.801,1.299,1.991,2.474,3.328,3.209c1.57,0.863,3.432,1.389,5.22,1.49c3.265,0.184,6.556,0.346,9.861,0.486
		c-2.74,0.695-4.761,3.181-4.741,6.134c0.024,3.474,2.86,6.272,6.334,6.248l86.66-0.593c3.474-0.024,6.272-2.86,6.248-6.334
		c-0.02-2.932-2.045-5.374-4.763-6.054c2.663-0.124,5.32-0.26,7.965-0.413c2.362-0.137,4.923-1.061,6.653-2.675
		c1.527-1.425,2.306-3.749,2.461-5.832C377.921,218.831,376.799,210.113,377.17,201.689z"/></g><g transform="translate(29.4092029000 -106.2438613000) rotate(270)"><path style="fill:none;stroke:#000000;stroke-width:0.25;stroke-miterlimit:10;" d="M-112.008,430.654
		c0.223-7.356,2.3-14.801,2.533-22.156c0.066-2.072-0.777-4.18-1.639-6.065c-0.837-1.83-2.006-3.624-3.438-5.038
		c-1.438-1.418-3.25-2.57-5.098-3.384c-1.672-0.736-3.571-1.137-5.395-1.236c-13.044-0.708-26.508-1.502-39.568-1.205
		c-5.026,0.114-10.018,2.163-15.038,2.447c-8.234,0.465-16.771-0.862-24.991-0.187c-6.691,0.55-13.546,1.93-19.971,3.879
		c-3.337,1.013-6.66,2.736-9.307,5.006c-1.799,1.543-3.241,3.828-3.703,6.152c-1.102,5.535-1.15,11.439-0.92,17.078
		c0.306,7.505,2.169,15.117,2.537,22.618c0.346,7.046-1.051,14.352-0.38,21.374c0.202,2.117,1.354,4.338,2.97,5.721
		c2.07,1.772,4.85,3.13,7.57,3.299c9.986,0.62,20.13,0.901,30.288,1.04c-2.222,0.701-3.839,2.771-3.851,5.226
		c-0.014,3.042,2.44,5.519,5.482,5.533l39.895,0.186c3.042,0.014,5.519-2.44,5.533-5.482c0.011-2.427-1.551-4.49-3.726-5.234
		c11.882,0.11,23.951,0.216,35.656-0.897c1.893-0.18,3.527-2.069,4.342-3.786c1.413-2.979,1.927-6.477,2.091-9.77
		c0.446-8.963,0.227-18.231-0.251-27.192C-110.529,435.915-112.089,433.323-112.008,430.654z"/></g><g transform="translate(-253.6842213000 560.9056121000) rotate(270)"><path style="fill:none;stroke:#000000;stroke-width:0.25;stroke-miterlimit:10;" d="M116.903,419.043
		c0.419-2.851,0.143-6.071-1.124-8.658c-3.714-7.583-8.428-15.015-13.701-21.609c-4.07-5.089-8.364-11.046-14.393-13.521
		c-8.926-3.665-19.292-3.728-28.926-4.267c-4.219-0.236-8.607,0.736-12.657,1.941c-2.917,0.868-5.637,2.586-8.18,4.257
		c-1.66,1.091-3.236,2.478-4.456,4.046c-1.829,2.351-3.474,4.994-4.691,7.713c-0.852,1.904-1.358,4.059-1.509,6.14
		c-1.234,16.99-2.417,34.518-2.682,51.551c-0.134,8.618,0.22,17.55,1.474,26.077c0.911,6.193,2.95,12.387,5.051,18.283
		c0.511,1.433,1.521,2.822,2.777,3.68c1.565,1.068,3.528,1.749,5.416,1.912c2.333,0.202,4.68,0.38,7.033,0.549
		c-2.586,0.609-4.572,2.859-4.719,5.647c-0.178,3.384,2.421,6.271,5.805,6.448l45.736,2.403c3.384,0.178,6.271-2.421,6.448-5.805
		c0.144-2.736-1.529-5.145-3.962-6.062c3.57,0.194,7.145,0.318,10.66,0.163c1.269-0.056,2.507-0.842,3.464-1.677
		c1.036-0.904,2.348-2.046,2.38-3.42c0.398-17.254-2.176-35.063-1.095-52.289C111.554,434.568,115.741,426.95,116.903,419.043z"/></g><g transform="translate(-79.6388326000 -74.7345190000) rotate(0)"><path style="fill:none;stroke:#000000;stroke-width:0.25;stroke-miterlimit:10;" d="M618.609,399.852
		c-0.027-1.475-1.129-3.012-2.391-3.776c-2.278-1.38-5.067-2.138-7.722-2.348c-14.686-1.163-29.874-1.72-44.605-1.797
		c-17.148-0.089-34.852-0.043-51.948,1.295c-2.517,0.197-5.123,1.514-6.896,3.311c-1.602,1.625-2.43,4.112-2.662,6.382
		c-1.235,12.076-1.497,24.607-1.75,36.744c-0.18,8.636-0.576,17.593,0.439,26.171c0.33,2.79,1.486,5.846,3.572,7.727
		c2.15,1.939,5.375,2.761,8.264,2.947c8.015,0.518,16.109,0.933,24.232,1.288c-2.616,0.676-4.586,3.006-4.677,5.843
		c-0.11,3.446,2.595,6.329,6.041,6.439l41.994,1.339c3.446,0.11,6.329-2.595,6.439-6.041c0.09-2.82-1.705-5.26-4.248-6.115
		c5.405,0.133,10.796,0.26,16.15,0.387c4.319,0.102,9.032,0.743,13.068-0.799c2.642-1.009,5.482-3.562,5.721-6.38
		C619.657,448.59,619.053,423.814,618.609,399.852z"/></g><g transform="translate(247.3412809000 294.5831244000) rotate(0)"><path style="fill:none;stroke:#000000;stroke-width:0.25;stroke-miterlimit:10;" d="M121.467,187.419
		c1.977-7.443,4.198-14.756,2.062-22.41c-0.548-1.962-2.768-3.738-4.337-5.068c-7.113-6.027-16.033-8.888-25.411-8.561l-11.07,0.386
		l-9.265,0.94l-19.022-0.292l-18.129-0.825c-3.015-0.137-5.703,0.547-8.74-0.513c-2.721-0.95-5.22-0.481-7.274,0.77
		c-2.081,1.267-3.313,3.663-3.324,6.592l-0.09,23.828l0.261,9.856c0.113,4.27,1.104,8.152,0.224,12.538l0.963,6.61
		c-0.444,5.958-1.68,11.707,0.547,17.414l13.464,0.582c2.829,0.122,5.556,0.564,8.385,0.5c1.312,0.467,3.84,1.555,5.161,3.387
		c2.116,2.934-0.178,5.667,4.609,5.665c10.031-0.004,19.318,0.127,29.549,0.176c3.197-0.246,2.61-2.565,3.489-4.837
		c0.642-1.657,2.699-3.552,4.468-4.197l11.6,0.615l10.516,1l9.106-0.642l0.576-9.318c0.201-3.25,0.75-5.807,2.079-8.699
		C121.025,205.201,120.011,192.904,121.467,187.419z M48.358,229.535l19.489-0.609l12.954,0.654l2.281,0.121L48.358,229.535z"/></g><!-- SYNTHETIC SLOT (NOT Deepnest output): "Flag + Slovakia(text)" joined the SKU after this nest was generated, so it has no real nest position. Hand-placed in free space purely so the fixture element count matches Pipeline 2 output. Re-nest in Deepnest to replace. --><g transform="translate(600.3930000000 473.4130000000) rotate(90)"><path style="fill:none;stroke:#000000;stroke-width:0.25;stroke-miterlimit:10;" d="M-114.667-82.41
		c-0.166-3.746-0.072-10.334-3.803-10.709c-34.835-3.498-71.092-1.231-106.091-0.325c-2.553,0.066-6.755,0.712-7.024,3.252
		c-2.38,22.447-1.464,45.844-0.574,68.399c0.103,2.616,0.943,6.885,3.553,7.095c6.362,0.511,12.769,0.877,19.203,1.135
		c-2.996,0.737-5.226,3.428-5.237,6.653c-0.013,3.801,3.058,6.894,6.859,6.907l68.126,0.233c3.801,0.013,6.893-3.058,6.906-6.86
		c0.011-3.154-2.104-5.813-4.994-6.637c3.763-0.022,7.518-0.037,11.257-0.033c2.455,0.003,5.187-0.076,7.33-1.275
		c1.842-1.031,3.808-2.928,3.948-5.035C-113.84-40.289-113.748-61.706-114.667-82.41z"/></g></g></svg>